<svg xmlns="http://www.w3.org/2000/svg" width="380" height="560" viewBox="0 0 380 560">
  <defs><style>text { font-family: monospace; fill: #eee; }</style></defs>
  <rect width="380" height="560" fill="#0d0d1a" rx="12"/>
  <text x="10" y="30" font-size="20" font-weight="bold">🧱 Tetris</text>
  <rect x="9" y="49" width="242" height="482" fill="none" stroke="#ffffff33" stroke-width="1"/>
  <rect x="10" y="50" width="23" height="23" fill="#1a1a2e" stroke="#ffffff11" rx="2"/><rect x="34" y="50" width="23" height="23" fill="#1a1a2e" stroke="#ffffff11" rx="2"/><rect x="58" y="50" width="23" height="23" fill="#ff9800" stroke="#ffffff22" rx="2"/><rect x="82" y="50" width="23" height="23" fill="#ff9800" stroke="#ffffff22" rx="2"/><rect x="106" y="50" width="23" height="23" fill="#ff9800" stroke="#ffffff22" rx="2"/><rect x="130" y="50" width="23" height="23" fill="#1a1a2e" stroke="#ffffff11" rx="2"/><rect x="154" y="50" width="23" height="23" fill="#1a1a2e" stroke="#ffffff11" rx="2"/><rect x="178" y="50" width="23" height="23" fill="#1a1a2e" stroke="#ffffff11" rx="2"/><rect x="202" y="50" width="23" height="23" fill="#1a1a2e" stroke="#ffffff11" rx="2"/><rect x="226" y="50" width="23" height="23" fill="#1a1a2e" stroke="#ffffff11" rx="2"/><rect x="10" y="74" width="23" height="23" fill="#1a1a2e" stroke="#ffffff11" rx="2"/><rect x="34" y="74" width="23" height="23" fill="#1a1a2e" stroke="#ffffff11" rx="2"/><rect x="58" y="74" width="23" height="23" fill="#ff9800" stroke="#ffffff22" rx="2"/><rect x="82" y="74" width="23" height="23" fill="#1a1a2e" stroke="#ffffff11" rx="2"/><rect x="106" y="74" width="23" height="23" fill="#1a1a2e" stroke="#ffffff11" rx="2"/><rect x="130" y="74" width="23" height="23" fill="#1a1a2e" stroke="#ffffff11" rx="2"/><rect x="154" y="74" width="23" height="23" fill="#1a1a2e" stroke="#ffffff11" rx="2"/><rect x="178" y="74" width="23" height="23" fill="#1a1a2e" stroke="#ffffff11" rx="2"/><rect x="202" y="74" width="23" height="23" fill="#1a1a2e" stroke="#ffffff11" rx="2"/><rect x="226" y="74" width="23" height="23" fill="#1a1a2e" stroke="#ffffff11" rx="2"/><rect x="10" y="98" width="23" height="23" fill="#1a1a2e" stroke="#ffffff11" rx="2"/><rect x="34" y="98" width="23" height="23" fill="#1a1a2e" stroke="#ffffff11" rx="2"/><rect x="58" y="98" width="23" height="23" fill="#1a1a2e" stroke="#ffffff11" rx="2"/><rect x="82" y="98" width="23" height="23" fill="#1a1a2e" stroke="#ffffff11" rx="2"/><rect x="106" y="98" width="23" height="23" fill="#1a1a2e" stroke="#ffffff11" rx="2"/><rect x="130" y="98" width="23" height="23" fill="#1a1a2e" stroke="#ffffff11" rx="2"/><rect x="154" y="98" width="23" height="23" fill="#1a1a2e" stroke="#ffffff11" rx="2"/><rect x="178" y="98" width="23" height="23" fill="#1a1a2e" stroke="#ffffff11" rx="2"/><rect x="202" y="98" width="23" height="23" fill="#1a1a2e" stroke="#ffffff11" rx="2"/><rect x="226" y="98" width="23" height="23" fill="#1a1a2e" stroke="#ffffff11" rx="2"/><rect x="10" y="122" width="23" height="23" fill="#1a1a2e" stroke="#ffffff11" rx="2"/><rect x="34" y="122" width="23" height="23" fill="#1a1a2e" stroke="#ffffff11" rx="2"/><rect x="58" y="122" width="23" height="23" fill="#1a1a2e" stroke="#ffffff11" rx="2"/><rect x="82" y="122" width="23" height="23" fill="#1a1a2e" stroke="#ffffff11" rx="2"/><rect x="106" y="122" width="23" height="23" fill="#1a1a2e" stroke="#ffffff11" rx="2"/><rect x="130" y="122" width="23" height="23" fill="#1a1a2e" stroke="#ffffff11" rx="2"/><rect x="154" y="122" width="23" height="23" fill="#1a1a2e" stroke="#ffffff11" rx="2"/><rect x="178" y="122" width="23" height="23" fill="#1a1a2e" stroke="#ffffff11" rx="2"/><rect x="202" y="122" width="23" height="23" fill="#1a1a2e" stroke="#ffffff11" rx="2"/><rect x="226" y="122" width="23" height="23" fill="#1a1a2e" stroke="#ffffff11" rx="2"/><rect x="10" y="146" width="23" height="23" fill="#1a1a2e" stroke="#ffffff11" rx="2"/><rect x="34" y="146" width="23" height="23" fill="#1a1a2e" stroke="#ffffff11" rx="2"/><rect x="58" y="146" width="23" height="23" fill="#1a1a2e" stroke="#ffffff11" rx="2"/><rect x="82" y="146" width="23" height="23" fill="#1a1a2e" stroke="#ffffff11" rx="2"/><rect x="106" y="146" width="23" height="23" fill="#1a1a2e" stroke="#ffffff11" rx="2"/><rect x="130" y="146" width="23" height="23" fill="#1a1a2e" stroke="#ffffff11" rx="2"/><rect x="154" y="146" width="23" height="23" fill="#1a1a2e" stroke="#ffffff11" rx="2"/><rect x="178" y="146" width="23" height="23" fill="#1a1a2e" stroke="#ffffff11" rx="2"/><rect x="202" y="146" width="23" height="23" fill="#1a1a2e" stroke="#ffffff11" rx="2"/><rect x="226" y="146" width="23" height="23" fill="#1a1a2e" stroke="#ffffff11" rx="2"/><rect x="10" y="170" width="23" height="23" fill="#1a1a2e" stroke="#ffffff11" rx="2"/><rect x="34" y="170" width="23" height="23" fill="#1a1a2e" stroke="#ffffff11" rx="2"/><rect x="58" y="170" width="23" height="23" fill="#1a1a2e" stroke="#ffffff11" rx="2"/><rect x="82" y="170" width="23" height="23" fill="#1a1a2e" stroke="#ffffff11" rx="2"/><rect x="106" y="170" width="23" height="23" fill="#1a1a2e" stroke="#ffffff11" rx="2"/><rect x="130" y="170" width="23" height="23" fill="#1a1a2e" stroke="#ffffff11" rx="2"/><rect x="154" y="170" width="23" height="23" fill="#1a1a2e" stroke="#ffffff11" rx="2"/><rect x="178" y="170" width="23" height="23" fill="#1a1a2e" stroke="#ffffff11" rx="2"/><rect x="202" y="170" width="23" height="23" fill="#1a1a2e" stroke="#ffffff11" rx="2"/><rect x="226" y="170" width="23" height="23" fill="#1a1a2e" stroke="#ffffff11" rx="2"/><rect x="10" y="194" width="23" height="23" fill="#1a1a2e" stroke="#ffffff11" rx="2"/><rect x="34" y="194" width="23" height="23" fill="#1a1a2e" stroke="#ffffff11" rx="2"/><rect x="58" y="194" width="23" height="23" fill="#1a1a2e" stroke="#ffffff11" rx="2"/><rect x="82" y="194" width="23" height="23" fill="#1a1a2e" stroke="#ffffff11" rx="2"/><rect x="106" y="194" width="23" height="23" fill="#1a1a2e" stroke="#ffffff11" rx="2"/><rect x="130" y="194" width="23" height="23" fill="#1a1a2e" stroke="#ffffff11" rx="2"/><rect x="154" y="194" width="23" height="23" fill="#1a1a2e" stroke="#ffffff11" rx="2"/><rect x="178" y="194" width="23" height="23" fill="#1a1a2e" stroke="#ffffff11" rx="2"/><rect x="202" y="194" width="23" height="23" fill="#1a1a2e" stroke="#ffffff11" rx="2"/><rect x="226" y="194" width="23" height="23" fill="#1a1a2e" stroke="#ffffff11" rx="2"/><rect x="10" y="218" width="23" height="23" fill="#1a1a2e" stroke="#ffffff11" rx="2"/><rect x="34" y="218" width="23" height="23" fill="#1a1a2e" stroke="#ffffff11" rx="2"/><rect x="58" y="218" width="23" height="23" fill="#1a1a2e" stroke="#ffffff11" rx="2"/><rect x="82" y="218" width="23" height="23" fill="#1a1a2e" stroke="#ffffff11" rx="2"/><rect x="106" y="218" width="23" height="23" fill="#1a1a2e" stroke="#ffffff11" rx="2"/><rect x="130" y="218" width="23" height="23" fill="#1a1a2e" stroke="#ffffff11" rx="2"/><rect x="154" y="218" width="23" height="23" fill="#1a1a2e" stroke="#ffffff11" rx="2"/><rect x="178" y="218" width="23" height="23" fill="#1a1a2e" stroke="#ffffff11" rx="2"/><rect x="202" y="218" width="23" height="23" fill="#1a1a2e" stroke="#ffffff11" rx="2"/><rect x="226" y="218" width="23" height="23" fill="#1a1a2e" stroke="#ffffff11" rx="2"/><rect x="10" y="242" width="23" height="23" fill="#1a1a2e" stroke="#ffffff11" rx="2"/><rect x="34" y="242" width="23" height="23" fill="#1a1a2e" stroke="#ffffff11" rx="2"/><rect x="58" y="242" width="23" height="23" fill="#1a1a2e" stroke="#ffffff11" rx="2"/><rect x="82" y="242" width="23" height="23" fill="#1a1a2e" stroke="#ffffff11" rx="2"/><rect x="106" y="242" width="23" height="23" fill="#1a1a2e" stroke="#ffffff11" rx="2"/><rect x="130" y="242" width="23" height="23" fill="#1a1a2e" stroke="#ffffff11" rx="2"/><rect x="154" y="242" width="23" height="23" fill="#1a1a2e" stroke="#ffffff11" rx="2"/><rect x="178" y="242" width="23" height="23" fill="#1a1a2e" stroke="#ffffff11" rx="2"/><rect x="202" y="242" width="23" height="23" fill="#1a1a2e" stroke="#ffffff11" rx="2"/><rect x="226" y="242" width="23" height="23" fill="#1a1a2e" stroke="#ffffff11" rx="2"/><rect x="10" y="266" width="23" height="23" fill="#1a1a2e" stroke="#ffffff11" rx="2"/><rect x="34" y="266" width="23" height="23" fill="#1a1a2e" stroke="#ffffff11" rx="2"/><rect x="58" y="266" width="23" height="23" fill="#1a1a2e" stroke="#ffffff11" rx="2"/><rect x="82" y="266" width="23" height="23" fill="#1a1a2e" stroke="#ffffff11" rx="2"/><rect x="106" y="266" width="23" height="23" fill="#1a1a2e" stroke="#ffffff11" rx="2"/><rect x="130" y="266" width="23" height="23" fill="#1a1a2e" stroke="#ffffff11" rx="2"/><rect x="154" y="266" width="23" height="23" fill="#1a1a2e" stroke="#ffffff11" rx="2"/><rect x="178" y="266" width="23" height="23" fill="#1a1a2e" stroke="#ffffff11" rx="2"/><rect x="202" y="266" width="23" height="23" fill="#1a1a2e" stroke="#ffffff11" rx="2"/><rect x="226" y="266" width="23" height="23" fill="#1a1a2e" stroke="#ffffff11" rx="2"/><rect x="10" y="290" width="23" height="23" fill="#1a1a2e" stroke="#ffffff11" rx="2"/><rect x="34" y="290" width="23" height="23" fill="#1a1a2e" stroke="#ffffff11" rx="2"/><rect x="58" y="290" width="23" height="23" fill="#1a1a2e" stroke="#ffffff11" rx="2"/><rect x="82" y="290" width="23" height="23" fill="#1a1a2e" stroke="#ffffff11" rx="2"/><rect x="106" y="290" width="23" height="23" fill="#1a1a2e" stroke="#ffffff11" rx="2"/><rect x="130" y="290" width="23" height="23" fill="#1a1a2e" stroke="#ffffff11" rx="2"/><rect x="154" y="290" width="23" height="23" fill="#1a1a2e" stroke="#ffffff11" rx="2"/><rect x="178" y="290" width="23" height="23" fill="#1a1a2e" stroke="#ffffff11" rx="2"/><rect x="202" y="290" width="23" height="23" fill="#1a1a2e" stroke="#ffffff11" rx="2"/><rect x="226" y="290" width="23" height="23" fill="#1a1a2e" stroke="#ffffff11" rx="2"/><rect x="10" y="314" width="23" height="23" fill="#1a1a2e" stroke="#ffffff11" rx="2"/><rect x="34" y="314" width="23" height="23" fill="#1a1a2e" stroke="#ffffff11" rx="2"/><rect x="58" y="314" width="23" height="23" fill="#1a1a2e" stroke="#ffffff11" rx="2"/><rect x="82" y="314" width="23" height="23" fill="#1a1a2e" stroke="#ffffff11" rx="2"/><rect x="106" y="314" width="23" height="23" fill="#1a1a2e" stroke="#ffffff11" rx="2"/><rect x="130" y="314" width="23" height="23" fill="#1a1a2e" stroke="#ffffff11" rx="2"/><rect x="154" y="314" width="23" height="23" fill="#1a1a2e" stroke="#ffffff11" rx="2"/><rect x="178" y="314" width="23" height="23" fill="#1a1a2e" stroke="#ffffff11" rx="2"/><rect x="202" y="314" width="23" height="23" fill="#1a1a2e" stroke="#ffffff11" rx="2"/><rect x="226" y="314" width="23" height="23" fill="#1a1a2e" stroke="#ffffff11" rx="2"/><rect x="10" y="338" width="23" height="23" fill="#1a1a2e" stroke="#ffffff11" rx="2"/><rect x="34" y="338" width="23" height="23" fill="#1a1a2e" stroke="#ffffff11" rx="2"/><rect x="58" y="338" width="23" height="23" fill="#1a1a2e" stroke="#ffffff11" rx="2"/><rect x="82" y="338" width="23" height="23" fill="#1a1a2e" stroke="#ffffff11" rx="2"/><rect x="106" y="338" width="23" height="23" fill="#4caf50" stroke="#ffffff22" rx="2"/><rect x="130" y="338" width="23" height="23" fill="#1a1a2e" stroke="#ffffff11" rx="2"/><rect x="154" y="338" width="23" height="23" fill="#1a1a2e" stroke="#ffffff11" rx="2"/><rect x="178" y="338" width="23" height="23" fill="#1a1a2e" stroke="#ffffff11" rx="2"/><rect x="202" y="338" width="23" height="23" fill="#1a1a2e" stroke="#ffffff11" rx="2"/><rect x="226" y="338" width="23" height="23" fill="#1a1a2e" stroke="#ffffff11" rx="2"/><rect x="10" y="362" width="23" height="23" fill="#1a1a2e" stroke="#ffffff11" rx="2"/><rect x="34" y="362" width="23" height="23" fill="#1a1a2e" stroke="#ffffff11" rx="2"/><rect x="58" y="362" width="23" height="23" fill="#1a1a2e" stroke="#ffffff11" rx="2"/><rect x="82" y="362" width="23" height="23" fill="#9c27b0" stroke="#ffffff22" rx="2"/><rect x="106" y="362" width="23" height="23" fill="#4caf50" stroke="#ffffff22" rx="2"/><rect x="130" y="362" width="23" height="23" fill="#4caf50" stroke="#ffffff22" rx="2"/><rect x="154" y="362" width="23" height="23" fill="#ffeb3b" stroke="#ffffff22" rx="2"/><rect x="178" y="362" width="23" height="23" fill="#ffeb3b" stroke="#ffffff22" rx="2"/><rect x="202" y="362" width="23" height="23" fill="#1a1a2e" stroke="#ffffff11" rx="2"/><rect x="226" y="362" width="23" height="23" fill="#1a1a2e" stroke="#ffffff11" rx="2"/><rect x="10" y="386" width="23" height="23" fill="#1a1a2e" stroke="#ffffff11" rx="2"/><rect x="34" y="386" width="23" height="23" fill="#1a1a2e" stroke="#ffffff11" rx="2"/><rect x="58" y="386" width="23" height="23" fill="#1a1a2e" stroke="#ffffff11" rx="2"/><rect x="82" y="386" width="23" height="23" fill="#9c27b0" stroke="#ffffff22" rx="2"/><rect x="106" y="386" width="23" height="23" fill="#9c27b0" stroke="#ffffff22" rx="2"/><rect x="130" y="386" width="23" height="23" fill="#4caf50" stroke="#ffffff22" rx="2"/><rect x="154" y="386" width="23" height="23" fill="#ffeb3b" stroke="#ffffff22" rx="2"/><rect x="178" y="386" width="23" height="23" fill="#ffeb3b" stroke="#ffffff22" rx="2"/><rect x="202" y="386" width="23" height="23" fill="#1a1a2e" stroke="#ffffff11" rx="2"/><rect x="226" y="386" width="23" height="23" fill="#1a1a2e" stroke="#ffffff11" rx="2"/><rect x="10" y="410" width="23" height="23" fill="#1a1a2e" stroke="#ffffff11" rx="2"/><rect x="34" y="410" width="23" height="23" fill="#2196f3" stroke="#ffffff22" rx="2"/><rect x="58" y="410" width="23" height="23" fill="#2196f3" stroke="#ffffff22" rx="2"/><rect x="82" y="410" width="23" height="23" fill="#9c27b0" stroke="#ffffff22" rx="2"/><rect x="106" y="410" width="23" height="23" fill="#00bcd4" stroke="#ffffff22" rx="2"/><rect x="130" y="410" width="23" height="23" fill="#00bcd4" stroke="#ffffff22" rx="2"/><rect x="154" y="410" width="23" height="23" fill="#00bcd4" stroke="#ffffff22" rx="2"/><rect x="178" y="410" width="23" height="23" fill="#00bcd4" stroke="#ffffff22" rx="2"/><rect x="202" y="410" width="23" height="23" fill="#1a1a2e" stroke="#ffffff11" rx="2"/><rect x="226" y="410" width="23" height="23" fill="#1a1a2e" stroke="#ffffff11" rx="2"/><rect x="10" y="434" width="23" height="23" fill="#1a1a2e" stroke="#ffffff11" rx="2"/><rect x="34" y="434" width="23" height="23" fill="#2196f3" stroke="#ffffff22" rx="2"/><rect x="58" y="434" width="23" height="23" fill="#2196f3" stroke="#ffffff22" rx="2"/><rect x="82" y="434" width="23" height="23" fill="#1a1a2e" stroke="#ffffff11" rx="2"/><rect x="106" y="434" width="23" height="23" fill="#00bcd4" stroke="#ffffff22" rx="2"/><rect x="130" y="434" width="23" height="23" fill="#00bcd4" stroke="#ffffff22" rx="2"/><rect x="154" y="434" width="23" height="23" fill="#00bcd4" stroke="#ffffff22" rx="2"/><rect x="178" y="434" width="23" height="23" fill="#00bcd4" stroke="#ffffff22" rx="2"/><rect x="202" y="434" width="23" height="23" fill="#1a1a2e" stroke="#ffffff11" rx="2"/><rect x="226" y="434" width="23" height="23" fill="#1a1a2e" stroke="#ffffff11" rx="2"/><rect x="10" y="458" width="23" height="23" fill="#1a1a2e" stroke="#ffffff11" rx="2"/><rect x="34" y="458" width="23" height="23" fill="#2196f3" stroke="#ffffff22" rx="2"/><rect x="58" y="458" width="23" height="23" fill="#2196f3" stroke="#ffffff22" rx="2"/><rect x="82" y="458" width="23" height="23" fill="#2196f3" stroke="#ffffff22" rx="2"/><rect x="106" y="458" width="23" height="23" fill="#2196f3" stroke="#ffffff22" rx="2"/><rect x="130" y="458" width="23" height="23" fill="#1a1a2e" stroke="#ffffff11" rx="2"/><rect x="154" y="458" width="23" height="23" fill="#1a1a2e" stroke="#ffffff11" rx="2"/><rect x="178" y="458" width="23" height="23" fill="#1a1a2e" stroke="#ffffff11" rx="2"/><rect x="202" y="458" width="23" height="23" fill="#1a1a2e" stroke="#ffffff11" rx="2"/><rect x="226" y="458" width="23" height="23" fill="#1a1a2e" stroke="#ffffff11" rx="2"/><rect x="10" y="482" width="23" height="23" fill="#1a1a2e" stroke="#ffffff11" rx="2"/><rect x="34" y="482" width="23" height="23" fill="#4caf50" stroke="#ffffff22" rx="2"/><rect x="58" y="482" width="23" height="23" fill="#4caf50" stroke="#ffffff22" rx="2"/><rect x="82" y="482" width="23" height="23" fill="#ffeb3b" stroke="#ffffff22" rx="2"/><rect x="106" y="482" width="23" height="23" fill="#ffeb3b" stroke="#ffffff22" rx="2"/><rect x="130" y="482" width="23" height="23" fill="#1a1a2e" stroke="#ffffff11" rx="2"/><rect x="154" y="482" width="23" height="23" fill="#1a1a2e" stroke="#ffffff11" rx="2"/><rect x="178" y="482" width="23" height="23" fill="#1a1a2e" stroke="#ffffff11" rx="2"/><rect x="202" y="482" width="23" height="23" fill="#1a1a2e" stroke="#ffffff11" rx="2"/><rect x="226" y="482" width="23" height="23" fill="#1a1a2e" stroke="#ffffff11" rx="2"/><rect x="10" y="506" width="23" height="23" fill="#4caf50" stroke="#ffffff22" rx="2"/><rect x="34" y="506" width="23" height="23" fill="#4caf50" stroke="#ffffff22" rx="2"/><rect x="58" y="506" width="23" height="23" fill="#1a1a2e" stroke="#ffffff11" rx="2"/><rect x="82" y="506" width="23" height="23" fill="#ffeb3b" stroke="#ffffff22" rx="2"/><rect x="106" y="506" width="23" height="23" fill="#ffeb3b" stroke="#ffffff22" rx="2"/><rect x="130" y="506" width="23" height="23" fill="#1a1a2e" stroke="#ffffff11" rx="2"/><rect x="154" y="506" width="23" height="23" fill="#1a1a2e" stroke="#ffffff11" rx="2"/><rect x="178" y="506" width="23" height="23" fill="#1a1a2e" stroke="#ffffff11" rx="2"/><rect x="202" y="506" width="23" height="23" fill="#1a1a2e" stroke="#ffffff11" rx="2"/><rect x="226" y="506" width="23" height="23" fill="#1a1a2e" stroke="#ffffff11" rx="2"/>
  <text x="265" y="60" font-size="13">SCORE</text>
  <text x="265" y="80" font-size="18" font-weight="bold">0</text>
  <text x="265" y="105" font-size="13">NEXT</text>
  <rect x="270" y="110" width="19" height="19" fill="#2196f3" rx="2"/><rect x="270" y="130" width="19" height="19" fill="#2196f3" rx="2"/><rect x="290" y="130" width="19" height="19" fill="#2196f3" rx="2"/><rect x="310" y="130" width="19" height="19" fill="#2196f3" rx="2"/>
  
  <text x="10" y="550" font-size="11" fill="#ffffff55">Comment: left · right · rotate · drop · reset</text>
</svg>